  0
SECTION
  2
HEADER
  9
$ACADVER
  1
AC1009
  9
$FILLMODE
 70
0
  9
$EXTMIN
 10
-0.2032
 20
-0.2032
 30
0.0000
  9
$EXTMAX
 10
138.2032
 20
100.2032
 30
0.0000
  0
ENDSEC
  0
SECTION
  2
TABLES
  0
TABLE
  2
LTYPE
 70
1
  0
LTYPE
  2
CONTINUOUS
 70
64
  3
Solid line
 72
65
 73
0
 40
0
  0
ENDTAB
  0
TABLE
  2
LAYER
 70
255
  0
LAYER
  2
1
 70
64
 62
22
  6
CONTINUOUS
  0
LAYER
  2
16
 70
64
 62
175
  6
CONTINUOUS
  0
LAYER
  2
17
 70
64
 62
82
  6
CONTINUOUS
  0
LAYER
  2
18
 70
64
 62
82
  6
CONTINUOUS
  0
LAYER
  2
19
 70
64
 62
53
  6
CONTINUOUS
  0
LAYER
  2
20
 70
64
 62
7
  6
CONTINUOUS
  0
LAYER
  2
21
 70
64
 62
253
  6
CONTINUOUS
  0
LAYER
  2
22
 70
64
 62
253
  6
CONTINUOUS
  0
LAYER
  2
23
 70
64
 62
7
  6
CONTINUOUS
  0
LAYER
  2
24
 70
64
 62
7
  6
CONTINUOUS
  0
LAYER
  2
25
 70
64
 62
253
  6
CONTINUOUS
  0
LAYER
  2
26
 70
64
 62
253
  6
CONTINUOUS
  0
LAYER
  2
27
 70
64
 62
253
  6
CONTINUOUS
  0
LAYER
  2
28
 70
64
 62
253
  6
CONTINUOUS
  0
LAYER
  2
39
 70
64
 62
22
  6
CONTINUOUS
  0
LAYER
  2
40
 70
64
 62
175
  6
CONTINUOUS
  0
LAYER
  2
41
 70
64
 62
22
  6
CONTINUOUS
  0
LAYER
  2
42
 70
64
 62
175
  6
CONTINUOUS
  0
LAYER
  2
43
 70
64
 62
82
  6
CONTINUOUS
  0
LAYER
  2
45
 70
64
 62
253
  6
CONTINUOUS
  0
LAYER
  2
48
 70
64
 62
253
  6
CONTINUOUS
  0
LAYER
  2
49
 70
64
 62
253
  6
CONTINUOUS
  0
LAYER
  2
51
 70
64
 62
253
  6
CONTINUOUS
  0
LAYER
  2
52
 70
64
 62
253
  6
CONTINUOUS
  0
ENDTAB
  0
ENDSEC
  0
SECTION
  2
BLOCKS
  0
BLOCK
  8
0
  2
RECT
 70
64
 10
0.0000
 20
0.0000
 30
0.0000
  3
RECT
  0
SOLID
  8
0
 10
-0.5000
 20
-0.5000
 30
0.0000
 11
0.5000
 21
-0.5000
 31
0.0000
 12
-0.5000
 22
0.5000
 32
0.0000
 13
0.5000
 23
0.5000
 33
0.0000
  0
ENDBLK
  8
0
  0
BLOCK
  8
0
  2
PIE
 70
64
 10
0.0000
 20
0.0000
 30
0.0000
  3
PIE
  0
CIRCLE
  8
0
 10
0.0000
 20
0.0000
 30
0.0000
 40
0.5000
  0
ENDBLK
  8
0
  0
BLOCK
  8
0
  2
OCTAGONP
 70
64
 10
0.0000
 20
0.0000
 30
0.0000
  3
OCTAGONP
  0
POLYLINE
  8
0
 66
1
 10
0.0000
 20
0.0000
 30
0.0000
 40
0.0000
 41
0.0000
 70
1
  0
VERTEX
  8
0
 10
-0.5000
 20
-0.2071
 30
0.0000
  0
VERTEX
  8
0
 10
-0.5000
 20
0.2071
 30
0.0000
  0
VERTEX
  8
0
 10
-0.2071
 20
0.5000
 30
0.0000
  0
VERTEX
  8
0
 10
0.2071
 20
0.5000
 30
0.0000
  0
VERTEX
  8
0
 10
0.5000
 20
0.2071
 30
0.0000
  0
VERTEX
  8
0
 10
0.5000
 20
-0.2071
 30
0.0000
  0
VERTEX
  8
0
 10
0.2071
 20
-0.5000
 30
0.0000
  0
VERTEX
  8
0
 10
-0.2071
 20
-0.5000
 30
0.0000
  0
SEQEND
  8
0
  0
ENDBLK
  8
0
  0
BLOCK
  8
0
  2
SQUAREP
 70
64
 10
0.0000
 20
0.0000
 30
0.0000
  3
SQUAREP
  0
SOLID
  8
0
 10
-0.5000
 20
-0.5000
 30
0.0000
 11
0.5000
 21
-0.5000
 31
0.0000
 12
-0.5000
 22
0.5000
 32
0.0000
 13
0.5000
 23
0.5000
 33
0.0000
  0
ENDBLK
  8
0
  0
BLOCK
  8
0
  2
ROUNDP
 70
64
 10
0.0000
 20
0.0000
 30
0.0000
  3
ROUNDP
  0
CIRCLE
  8
0
 10
0.0000
 20
0.0000
 30
0.0000
 40
0.5000
  0
ENDBLK
  8
0
  0
BLOCK
  8
0
  2
ANNULUSP
 70
64
 10
0.0000
 20
0.0000
 30
0.0000
  3
ANNULUSP
  0
CIRCLE
  8
0
 10
0.0000
 20
0.0000
 30
0.0000
 40
0.5000
  0
ENDBLK
  8
0
  0
BLOCK
  8
0
  2
THERMALP
 70
64
 10
0.0000
 20
0.0000
 30
0.0000
  3
THERMALP
  0
LINE
  8
0
 10
-0.2379
 20
0.4500
 30
0.0000
 11
0.2379
 21
0.4500
 31
0.0000
  0
LINE
  8
0
 10
0.4500
 20
0.2379
 30
0.0000
 11
0.4500
 21
-0.2379
 31
0.0000
  0
LINE
  8
0
 10
0.2379
 20
-0.4500
 30
0.0000
 11
-0.2379
 21
-0.4500
 31
0.0000
  0
LINE
  8
0
 10
-0.4500
 20
-0.2379
 30
0.0000
 11
-0.4500
 21
0.2379
 31
0.0000
  0
ENDBLK
  8
0
  0
BLOCK
  8
0
  2
OCTAGONV
 70
64
 10
0.0000
 20
0.0000
 30
0.0000
  3
OCTAGONV
  0
POLYLINE
  8
0
 66
1
 10
0.0000
 20
0.0000
 30
0.0000
 40
0.0000
 41
0.0000
 70
1
  0
VERTEX
  8
0
 10
-0.5000
 20
-0.2071
 30
0.0000
  0
VERTEX
  8
0
 10
-0.5000
 20
0.2071
 30
0.0000
  0
VERTEX
  8
0
 10
-0.2071
 20
0.5000
 30
0.0000
  0
VERTEX
  8
0
 10
0.2071
 20
0.5000
 30
0.0000
  0
VERTEX
  8
0
 10
0.5000
 20
0.2071
 30
0.0000
  0
VERTEX
  8
0
 10
0.5000
 20
-0.2071
 30
0.0000
  0
VERTEX
  8
0
 10
0.2071
 20
-0.5000
 30
0.0000
  0
VERTEX
  8
0
 10
-0.2071
 20
-0.5000
 30
0.0000
  0
SEQEND
  8
0
  0
ENDBLK
  8
0
  0
BLOCK
  8
0
  2
SQUAREV
 70
64
 10
0.0000
 20
0.0000
 30
0.0000
  3
SQUAREV
  0
SOLID
  8
0
 10
-0.5000
 20
-0.5000
 30
0.0000
 11
0.5000
 21
-0.5000
 31
0.0000
 12
-0.5000
 22
0.5000
 32
0.0000
 13
0.5000
 23
0.5000
 33
0.0000
  0
ENDBLK
  8
0
  0
BLOCK
  8
0
  2
ROUNDV
 70
64
 10
0.0000
 20
0.0000
 30
0.0000
  3
ROUNDV
  0
CIRCLE
  8
0
 10
0.0000
 20
0.0000
 30
0.0000
 40
0.5000
  0
ENDBLK
  8
0
  0
BLOCK
  8
0
  2
ANNULUSV
 70
64
 10
0.0000
 20
0.0000
 30
0.0000
  3
ANNULUSV
  0
CIRCLE
  8
0
 10
0.0000
 20
0.0000
 30
0.0000
 40
0.5000
  0
ENDBLK
  8
0
  0
BLOCK
  8
0
  2
THERMALV
 70
64
 10
0.0000
 20
0.0000
 30
0.0000
  3
THERMALV
  0
LINE
  8
0
 10
-0.2379
 20
0.4500
 30
0.0000
 11
0.2379
 21
0.4500
 31
0.0000
  0
LINE
  8
0
 10
0.4500
 20
0.2379
 30
0.0000
 11
0.4500
 21
-0.2379
 31
0.0000
  0
LINE
  8
0
 10
0.2379
 20
-0.4500
 30
0.0000
 11
-0.2379
 21
-0.4500
 31
0.0000
  0
LINE
  8
0
 10
-0.4500
 20
-0.2379
 30
0.0000
 11
-0.4500
 21
0.2379
 31
0.0000
  0
ENDBLK
  8
0
  0
ENDSEC
  0
SECTION
  2
ENTITIES
  0
LINE
  8
20
 10
3.0000
 20
100.0000
 30
0.0000
 11
45.0000
 21
100.0000
 31
0.0000
  0
ARC
  8
20
 10
45.0000
 20
98.0000
 30
0.0000
 40
2.0000
 50
0.0000
 51
90.0000
  0
LINE
  8
20
 10
47.0000
 20
98.0000
 30
0.0000
 11
47.0000
 21
42.0000
 31
0.0000
  0
LINE
  8
20
 10
92.0000
 20
42.0000
 30
0.0000
 11
92.0000
 21
98.0000
 31
0.0000
  0
ARC
  8
20
 10
94.0000
 20
98.0000
 30
0.0000
 40
2.0000
 50
90.0000
 51
180.0000
  0
LINE
  8
20
 10
94.0000
 20
100.0000
 30
0.0000
 11
135.0000
 21
100.0000
 31
0.0000
  0
ARC
  8
20
 10
135.0000
 20
97.0000
 30
0.0000
 40
3.0000
 50
0.0000
 51
90.0000
  0
LINE
  8
20
 10
138.0000
 20
97.0000
 30
0.0000
 11
138.0000
 21
3.0000
 31
0.0000
  0
ARC
  8
20
 10
135.0000
 20
3.0000
 30
0.0000
 40
3.0000
 50
270.0000
 51
0.0000
  0
LINE
  8
20
 10
135.0000
 20
0.0000
 30
0.0000
 11
3.0000
 21
0.0000
 31
0.0000
  0
ARC
  8
20
 10
3.0000
 20
3.0000
 30
0.0000
 40
3.0000
 50
180.0000
 51
270.0000
  0
LINE
  8
20
 10
20.0000
 20
25.0000
 30
0.0000
 11
20.0000
 21
15.0000
 31
0.0000
  0
ARC
  8
20
 10
18.0000
 20
15.0000
 30
0.0000
 40
2.0000
 50
270.0000
 51
0.0000
  0
LINE
  8
20
 10
18.0000
 20
13.0000
 30
0.0000
 11
2.0000
 21
13.0000
 31
0.0000
  0
ARC
  8
20
 10
2.0000
 20
11.0000
 30
0.0000
 40
2.0000
 50
90.0000
 51
180.0000
  0
LINE
  8
20
 10
0.0000
 20
11.0000
 30
0.0000
 11
0.0000
 21
3.0000
 31
0.0000
  0
LINE
  8
20
 10
0.0000
 20
97.0000
 30
0.0000
 11
0.0000
 21
29.0000
 31
0.0000
  0
ARC
  8
20
 10
2.0000
 20
29.0000
 30
0.0000
 40
2.0000
 50
180.0000
 51
270.0000
  0
LINE
  8
20
 10
2.0000
 20
27.0000
 30
0.0000
 11
18.0000
 21
27.0000
 31
0.0000
  0
ARC
  8
20
 10
18.0000
 20
25.0000
 30
0.0000
 40
2.0000
 50
0.0000
 51
90.0000
  0
ARC
  8
20
 10
3.0000
 20
97.0000
 30
0.0000
 40
3.0000
 50
90.0000
 51
180.0000
  0
ARC
  8
20
 10
49.0000
 20
42.0000
 30
0.0000
 40
2.0000
 50
180.0000
 51
270.0000
  0
LINE
  8
20
 10
49.0000
 20
40.0000
 30
0.0000
 11
90.0000
 21
40.0000
 31
0.0000
  0
ARC
  8
20
 10
90.0000
 20
42.0000
 30
0.0000
 40
2.0000
 50
270.0000
 51
0.0000
  0
LINE
  8
20
 10
50.0000
 20
35.0000
 30
0.0000
 11
86.0000
 21
35.0000
 31
0.0000
  0
ARC
  8
20
 10
86.0000
 20
33.0000
 30
0.0000
 40
2.0000
 50
0.0000
 51
90.0000
  0
LINE
  8
20
 10
88.0000
 20
33.0000
 30
0.0000
 11
88.0000
 21
27.0000
 31
0.0000
  0
ARC
  8
20
 10
86.0000
 20
27.0000
 30
0.0000
 40
2.0000
 50
270.0000
 51
0.0000
  0
LINE
  8
20
 10
86.0000
 20
25.0000
 30
0.0000
 11
50.0000
 21
25.0000
 31
0.0000
  0
ARC
  8
20
 10
50.0000
 20
27.0000
 30
0.0000
 40
2.0000
 50
180.0000
 51
270.0000
  0
LINE
  8
20
 10
48.0000
 20
27.0000
 30
0.0000
 11
48.0000
 21
33.0000
 31
0.0000
  0
ARC
  8
20
 10
50.0000
 20
33.0000
 30
0.0000
 40
2.0000
 50
90.0000
 51
180.0000
  0
CIRCLE
  8
20
 10
4.0000
 20
96.0000
 30
0.0000
 40
1.1000
  0
CIRCLE
  8
20
 10
4.0000
 20
4.0000
 30
0.0000
 40
1.1000
  0
CIRCLE
  8
20
 10
134.0000
 20
4.0000
 30
0.0000
 40
1.1000
  0
CIRCLE
  8
20
 10
134.0000
 20
96.0000
 30
0.0000
 40
1.1000
  0
CIRCLE
  8
20
 10
33.0000
 20
96.0000
 30
0.0000
 40
1.1000
  0
CIRCLE
  8
20
 10
105.0000
 20
96.0000
 30
0.0000
 40
1.1000
  0
CIRCLE
  8
20
 10
48.0000
 20
3.0000
 30
0.0000
 40
1.1000
  0
CIRCLE
  8
20
 10
93.0000
 20
3.0000
 30
0.0000
 40
1.1000
  0
CIRCLE
  8
20
 10
4.0000
 20
48.0000
 30
0.0000
 40
1.1000
  0
CIRCLE
  8
20
 10
134.0000
 20
48.0000
 30
0.0000
 40
1.1000
  0
POINT
  8
23
 10
8.0000
 20
5.0000
 30
0.0000
  0
CIRCLE
  8
20
 10
12.3200
 20
9.3200
 30
0.0000
 40
1.1000
  0
CIRCLE
  8
20
 10
12.3200
 20
78.6100
 30
0.0000
 40
1.1000
  0
CIRCLE
  8
20
 10
105.4100
 20
9.3200
 30
0.0000
 40
1.1000
  0
CIRCLE
  8
20
 10
105.4100
 20
78.6100
 30
0.0000
 40
1.1000
  0
POINT
  8
23
 10
100.0000
 20
60.0000
 30
0.0000
  0
CIRCLE
  8
20
 10
109.5000
 20
67.5000
 30
0.0000
 40
1.6000
  0
CIRCLE
  8
20
 10
121.5000
 20
67.5000
 30
0.0000
 40
1.6000
  0
POINT
  8
23
 10
100.0000
 20
25.0000
 30
0.0000
  0
CIRCLE
  8
20
 10
109.5000
 20
32.5000
 30
0.0000
 40
1.6000
  0
CIRCLE
  8
20
 10
121.5000
 20
32.5000
 30
0.0000
 40
1.6000
  0
POINT
  8
23
 10
65.0000
 20
8.0000
 30
0.0000
  0
CIRCLE
  8
20
 10
74.5000
 20
15.5000
 30
0.0000
 40
1.6000
  0
CIRCLE
  8
20
 10
86.5000
 20
15.5000
 30
0.0000
 40
1.6000
  0
ENDSEC
  0
EOF
