  0
SECTION
  2
HEADER
  9
$ACADVER
  1
AC1009
  9
$FILLMODE
 70
0
  9
$EXTMIN
 10
-12.3707
 20
-10.5927
 30
0.0000
  9
$EXTMAX
 10
150.5160
 20
109.0635
 30
0.0000
  0
ENDSEC
  0
SECTION
  2
TABLES
  0
TABLE
  2
LTYPE
 70
1
  0
LTYPE
  2
CONTINUOUS
 70
64
  3
Solid line
 72
65
 73
0
 40
0
  0
ENDTAB
  0
TABLE
  2
LAYER
 70
255
  0
LAYER
  2
1
 70
64
 62
22
  6
CONTINUOUS
  0
LAYER
  2
16
 70
64
 62
175
  6
CONTINUOUS
  0
LAYER
  2
17
 70
64
 62
82
  6
CONTINUOUS
  0
LAYER
  2
18
 70
64
 62
82
  6
CONTINUOUS
  0
LAYER
  2
19
 70
64
 62
53
  6
CONTINUOUS
  0
LAYER
  2
20
 70
64
 62
7
  6
CONTINUOUS
  0
LAYER
  2
21
 70
64
 62
253
  6
CONTINUOUS
  0
LAYER
  2
22
 70
64
 62
253
  6
CONTINUOUS
  0
LAYER
  2
23
 70
64
 62
7
  6
CONTINUOUS
  0
LAYER
  2
24
 70
64
 62
7
  6
CONTINUOUS
  0
LAYER
  2
25
 70
64
 62
253
  6
CONTINUOUS
  0
LAYER
  2
26
 70
64
 62
253
  6
CONTINUOUS
  0
LAYER
  2
27
 70
64
 62
253
  6
CONTINUOUS
  0
LAYER
  2
28
 70
64
 62
253
  6
CONTINUOUS
  0
LAYER
  2
39
 70
64
 62
22
  6
CONTINUOUS
  0
LAYER
  2
40
 70
64
 62
175
  6
CONTINUOUS
  0
LAYER
  2
41
 70
64
 62
22
  6
CONTINUOUS
  0
LAYER
  2
42
 70
64
 62
175
  6
CONTINUOUS
  0
LAYER
  2
43
 70
64
 62
82
  6
CONTINUOUS
  0
LAYER
  2
45
 70
64
 62
253
  6
CONTINUOUS
  0
LAYER
  2
48
 70
64
 62
253
  6
CONTINUOUS
  0
LAYER
  2
49
 70
64
 62
253
  6
CONTINUOUS
  0
LAYER
  2
51
 70
64
 62
253
  6
CONTINUOUS
  0
LAYER
  2
52
 70
64
 62
253
  6
CONTINUOUS
  0
LAYER
  2
100
 70
64
 62
253
  6
CONTINUOUS
  0
LAYER
  2
101
 70
64
 62
253
  6
CONTINUOUS
  0
LAYER
  2
102
 70
64
 62
253
  6
CONTINUOUS
  0
LAYER
  2
104
 70
64
 62
253
  6
CONTINUOUS
  0
LAYER
  2
108
 70
64
 62
3
  6
CONTINUOUS
  0
LAYER
  2
109
 70
64
 62
4
  6
CONTINUOUS
  0
LAYER
  2
114
 70
64
 62
253
  6
CONTINUOUS
  0
LAYER
  2
115
 70
64
 62
253
  6
CONTINUOUS
  0
LAYER
  2
116
 70
64
 62
253
  6
CONTINUOUS
  0
LAYER
  2
117
 70
64
 62
253
  6
CONTINUOUS
  0
LAYER
  2
119
 70
64
 62
253
  6
CONTINUOUS
  0
LAYER
  2
120
 70
64
 62
253
  6
CONTINUOUS
  0
LAYER
  2
129
 70
64
 62
253
  6
CONTINUOUS
  0
LAYER
  2
130
 70
64
 62
253
  6
CONTINUOUS
  0
LAYER
  2
133
 70
64
 62
253
  6
CONTINUOUS
  0
LAYER
  2
199
 70
64
 62
253
  6
CONTINUOUS
  0
LAYER
  2
200
 70
64
 62
175
  6
CONTINUOUS
  0
LAYER
  2
201
 70
64
 62
82
  6
CONTINUOUS
  0
LAYER
  2
229
 70
64
 62
253
  6
CONTINUOUS
  0
LAYER
  2
231
 70
64
 62
253
  6
CONTINUOUS
  0
LAYER
  2
232
 70
64
 62
253
  6
CONTINUOUS
  0
LAYER
  2
233
 70
64
 62
253
  6
CONTINUOUS
  0
LAYER
  2
254
 70
64
 62
253
  6
CONTINUOUS
  0
LAYER
  2
255
 70
64
 62
253
  6
CONTINUOUS
  0
ENDTAB
  0
ENDSEC
  0
SECTION
  2
BLOCKS
  0
BLOCK
  8
0
  2
RECT
 70
64
 10
0.0000
 20
0.0000
 30
0.0000
  3
RECT
  0
SOLID
  8
0
 10
-0.5000
 20
-0.5000
 30
0.0000
 11
0.5000
 21
-0.5000
 31
0.0000
 12
-0.5000
 22
0.5000
 32
0.0000
 13
0.5000
 23
0.5000
 33
0.0000
  0
ENDBLK
  8
0
  0
BLOCK
  8
0
  2
PIE
 70
64
 10
0.0000
 20
0.0000
 30
0.0000
  3
PIE
  0
CIRCLE
  8
0
 10
0.0000
 20
0.0000
 30
0.0000
 40
0.5000
  0
ENDBLK
  8
0
  0
BLOCK
  8
0
  2
OCTAGONP
 70
64
 10
0.0000
 20
0.0000
 30
0.0000
  3
OCTAGONP
  0
POLYLINE
  8
0
 66
1
 10
0.0000
 20
0.0000
 30
0.0000
 40
0.0000
 41
0.0000
 70
1
  0
VERTEX
  8
0
 10
-0.5000
 20
-0.2071
 30
0.0000
  0
VERTEX
  8
0
 10
-0.5000
 20
0.2071
 30
0.0000
  0
VERTEX
  8
0
 10
-0.2071
 20
0.5000
 30
0.0000
  0
VERTEX
  8
0
 10
0.2071
 20
0.5000
 30
0.0000
  0
VERTEX
  8
0
 10
0.5000
 20
0.2071
 30
0.0000
  0
VERTEX
  8
0
 10
0.5000
 20
-0.2071
 30
0.0000
  0
VERTEX
  8
0
 10
0.2071
 20
-0.5000
 30
0.0000
  0
VERTEX
  8
0
 10
-0.2071
 20
-0.5000
 30
0.0000
  0
SEQEND
  8
0
  0
ENDBLK
  8
0
  0
BLOCK
  8
0
  2
SQUAREP
 70
64
 10
0.0000
 20
0.0000
 30
0.0000
  3
SQUAREP
  0
SOLID
  8
0
 10
-0.5000
 20
-0.5000
 30
0.0000
 11
0.5000
 21
-0.5000
 31
0.0000
 12
-0.5000
 22
0.5000
 32
0.0000
 13
0.5000
 23
0.5000
 33
0.0000
  0
ENDBLK
  8
0
  0
BLOCK
  8
0
  2
ROUNDP
 70
64
 10
0.0000
 20
0.0000
 30
0.0000
  3
ROUNDP
  0
CIRCLE
  8
0
 10
0.0000
 20
0.0000
 30
0.0000
 40
0.5000
  0
ENDBLK
  8
0
  0
BLOCK
  8
0
  2
ANNULUSP
 70
64
 10
0.0000
 20
0.0000
 30
0.0000
  3
ANNULUSP
  0
CIRCLE
  8
0
 10
0.0000
 20
0.0000
 30
0.0000
 40
0.5000
  0
ENDBLK
  8
0
  0
BLOCK
  8
0
  2
THERMALP
 70
64
 10
0.0000
 20
0.0000
 30
0.0000
  3
THERMALP
  0
LINE
  8
0
 10
-0.2379
 20
0.4500
 30
0.0000
 11
0.2379
 21
0.4500
 31
0.0000
  0
LINE
  8
0
 10
0.4500
 20
0.2379
 30
0.0000
 11
0.4500
 21
-0.2379
 31
0.0000
  0
LINE
  8
0
 10
0.2379
 20
-0.4500
 30
0.0000
 11
-0.2379
 21
-0.4500
 31
0.0000
  0
LINE
  8
0
 10
-0.4500
 20
-0.2379
 30
0.0000
 11
-0.4500
 21
0.2379
 31
0.0000
  0
ENDBLK
  8
0
  0
BLOCK
  8
0
  2
OCTAGONV
 70
64
 10
0.0000
 20
0.0000
 30
0.0000
  3
OCTAGONV
  0
POLYLINE
  8
0
 66
1
 10
0.0000
 20
0.0000
 30
0.0000
 40
0.0000
 41
0.0000
 70
1
  0
VERTEX
  8
0
 10
-0.5000
 20
-0.2071
 30
0.0000
  0
VERTEX
  8
0
 10
-0.5000
 20
0.2071
 30
0.0000
  0
VERTEX
  8
0
 10
-0.2071
 20
0.5000
 30
0.0000
  0
VERTEX
  8
0
 10
0.2071
 20
0.5000
 30
0.0000
  0
VERTEX
  8
0
 10
0.5000
 20
0.2071
 30
0.0000
  0
VERTEX
  8
0
 10
0.5000
 20
-0.2071
 30
0.0000
  0
VERTEX
  8
0
 10
0.2071
 20
-0.5000
 30
0.0000
  0
VERTEX
  8
0
 10
-0.2071
 20
-0.5000
 30
0.0000
  0
SEQEND
  8
0
  0
ENDBLK
  8
0
  0
BLOCK
  8
0
  2
SQUAREV
 70
64
 10
0.0000
 20
0.0000
 30
0.0000
  3
SQUAREV
  0
SOLID
  8
0
 10
-0.5000
 20
-0.5000
 30
0.0000
 11
0.5000
 21
-0.5000
 31
0.0000
 12
-0.5000
 22
0.5000
 32
0.0000
 13
0.5000
 23
0.5000
 33
0.0000
  0
ENDBLK
  8
0
  0
BLOCK
  8
0
  2
ROUNDV
 70
64
 10
0.0000
 20
0.0000
 30
0.0000
  3
ROUNDV
  0
CIRCLE
  8
0
 10
0.0000
 20
0.0000
 30
0.0000
 40
0.5000
  0
ENDBLK
  8
0
  0
BLOCK
  8
0
  2
ANNULUSV
 70
64
 10
0.0000
 20
0.0000
 30
0.0000
  3
ANNULUSV
  0
CIRCLE
  8
0
 10
0.0000
 20
0.0000
 30
0.0000
 40
0.5000
  0
ENDBLK
  8
0
  0
BLOCK
  8
0
  2
THERMALV
 70
64
 10
0.0000
 20
0.0000
 30
0.0000
  3
THERMALV
  0
LINE
  8
0
 10
-0.2379
 20
0.4500
 30
0.0000
 11
0.2379
 21
0.4500
 31
0.0000
  0
LINE
  8
0
 10
0.4500
 20
0.2379
 30
0.0000
 11
0.4500
 21
-0.2379
 31
0.0000
  0
LINE
  8
0
 10
0.2379
 20
-0.4500
 30
0.0000
 11
-0.2379
 21
-0.4500
 31
0.0000
  0
LINE
  8
0
 10
-0.4500
 20
-0.2379
 30
0.0000
 11
-0.4500
 21
0.2379
 31
0.0000
  0
ENDBLK
  8
0
  0
ENDSEC
  0
SECTION
  2
ENTITIES
  0
LINE
  8
20
 10
150.0000
 20
95.0000
 30
0.0000
 11
150.0000
 21
5.0000
 31
0.0000
  0
ARC
  8
20
 10
145.0000
 20
5.0000
 30
0.0000
 40
5.0000
 50
270.0000
 51
0.0000
  0
LINE
  8
20
 10
145.0000
 20
0.0000
 30
0.0000
 11
5.0000
 21
0.0000
 31
0.0000
  0
ARC
  8
20
 10
5.0000
 20
5.0000
 30
0.0000
 40
5.0000
 50
180.0000
 51
270.0000
  0
LINE
  8
20
 10
0.0000
 20
5.0000
 30
0.0000
 11
0.0000
 21
95.0000
 31
0.0000
  0
ARC
  8
20
 10
5.0000
 20
95.0000
 30
0.0000
 40
5.0000
 50
90.0000
 51
180.0000
  0
LINE
  8
20
 10
5.0000
 20
100.0000
 30
0.0000
 11
145.0000
 21
100.0000
 31
0.0000
  0
ARC
  8
20
 10
145.0000
 20
95.0000
 30
0.0000
 40
5.0000
 50
0.0000
 51
90.0000
  0
CIRCLE
  8
20
 10
145.0000
 20
5.0000
 30
0.0000
 40
1.6000
  0
CIRCLE
  8
20
 10
145.0000
 20
95.0000
 30
0.0000
 40
1.6000
  0
CIRCLE
  8
20
 10
5.0000
 20
95.0000
 30
0.0000
 40
1.6000
  0
CIRCLE
  8
20
 10
5.0000
 20
5.0000
 30
0.0000
 40
1.6000
  0
CIRCLE
  8
20
 10
100.0000
 20
50.0000
 30
0.0000
 40
16.0000
  0
CIRCLE
  8
20
 10
26.0000
 20
50.0000
 30
0.0000
 40
1.6000
  0
CIRCLE
  8
20
 10
77.0000
 20
65.0000
 30
0.0000
 40
1.6000
  0
CIRCLE
  8
20
 10
49.0000
 20
63.0000
 30
0.0000
 40
1.6000
  0
POINT
  8
23
 10
142.0000
 20
61.0000
 30
0.0000
  0
CIRCLE
  8
20
 10
138.5000
 20
57.5000
 30
0.0000
 40
1.4000
  0
CIRCLE
  8
20
 10
80.5000
 20
57.5000
 30
0.0000
 40
1.4000
  0
CIRCLE
  8
20
 10
138.5000
 20
8.5000
 30
0.0000
 40
1.4000
  0
CIRCLE
  8
20
 10
80.5000
 20
8.5000
 30
0.0000
 40
1.4000
  0
POINT
  8
23
 10
35.0000
 20
3.0000
 30
0.0000
  0
LINE
  8
20
 10
32.0000
 20
4.1000
 30
0.0000
 11
38.0000
 21
4.1000
 31
0.0000
  0
ARC
  8
20
 10
38.0000
 20
3.9000
 30
0.0000
 40
0.2000
 50
0.0000
 51
90.0000
  0
LINE
  8
20
 10
38.2000
 20
3.9000
 30
0.0000
 11
38.2000
 21
2.1000
 31
0.0000
  0
ARC
  8
20
 10
38.0000
 20
2.1000
 30
0.0000
 40
0.2000
 50
270.0000
 51
0.0000
  0
LINE
  8
20
 10
38.0000
 20
1.9000
 30
0.0000
 11
32.0000
 21
1.9000
 31
0.0000
  0
ARC
  8
20
 10
32.0000
 20
2.1000
 30
0.0000
 40
0.2000
 50
180.0000
 51
270.0000
  0
LINE
  8
20
 10
31.8000
 20
2.1000
 30
0.0000
 11
31.8000
 21
3.9000
 31
0.0000
  0
ARC
  8
20
 10
32.0000
 20
3.9000
 30
0.0000
 40
0.2000
 50
90.0000
 51
180.0000
  0
POINT
  8
23
 10
115.0000
 20
3.0000
 30
0.0000
  0
LINE
  8
20
 10
112.0000
 20
4.1000
 30
0.0000
 11
118.0000
 21
4.1000
 31
0.0000
  0
ARC
  8
20
 10
118.0000
 20
3.9000
 30
0.0000
 40
0.2000
 50
0.0000
 51
90.0000
  0
LINE
  8
20
 10
118.2000
 20
3.9000
 30
0.0000
 11
118.2000
 21
2.1000
 31
0.0000
  0
ARC
  8
20
 10
118.0000
 20
2.1000
 30
0.0000
 40
0.2000
 50
270.0000
 51
0.0000
  0
LINE
  8
20
 10
118.0000
 20
1.9000
 30
0.0000
 11
112.0000
 21
1.9000
 31
0.0000
  0
ARC
  8
20
 10
112.0000
 20
2.1000
 30
0.0000
 40
0.2000
 50
180.0000
 51
270.0000
  0
LINE
  8
20
 10
111.8000
 20
2.1000
 30
0.0000
 11
111.8000
 21
3.9000
 31
0.0000
  0
ARC
  8
20
 10
112.0000
 20
3.9000
 30
0.0000
 40
0.2000
 50
90.0000
 51
180.0000
  0
POINT
  8
23
 10
75.0000
 20
3.0000
 30
0.0000
  0
LINE
  8
20
 10
72.0000
 20
4.1000
 30
0.0000
 11
78.0000
 21
4.1000
 31
0.0000
  0
ARC
  8
20
 10
78.0000
 20
3.9000
 30
0.0000
 40
0.2000
 50
0.0000
 51
90.0000
  0
LINE
  8
20
 10
78.2000
 20
3.9000
 30
0.0000
 11
78.2000
 21
2.1000
 31
0.0000
  0
ARC
  8
20
 10
78.0000
 20
2.1000
 30
0.0000
 40
0.2000
 50
270.0000
 51
0.0000
  0
LINE
  8
20
 10
78.0000
 20
1.9000
 30
0.0000
 11
72.0000
 21
1.9000
 31
0.0000
  0
ARC
  8
20
 10
72.0000
 20
2.1000
 30
0.0000
 40
0.2000
 50
180.0000
 51
270.0000
  0
LINE
  8
20
 10
71.8000
 20
2.1000
 30
0.0000
 11
71.8000
 21
3.9000
 31
0.0000
  0
ARC
  8
20
 10
72.0000
 20
3.9000
 30
0.0000
 40
0.2000
 50
90.0000
 51
180.0000
  0
POINT
  8
23
 10
95.0000
 20
3.0000
 30
0.0000
  0
LINE
  8
20
 10
92.0000
 20
4.1000
 30
0.0000
 11
98.0000
 21
4.1000
 31
0.0000
  0
ARC
  8
20
 10
98.0000
 20
3.9000
 30
0.0000
 40
0.2000
 50
0.0000
 51
90.0000
  0
LINE
  8
20
 10
98.2000
 20
3.9000
 30
0.0000
 11
98.2000
 21
2.1000
 31
0.0000
  0
ARC
  8
20
 10
98.0000
 20
2.1000
 30
0.0000
 40
0.2000
 50
270.0000
 51
0.0000
  0
LINE
  8
20
 10
98.0000
 20
1.9000
 30
0.0000
 11
92.0000
 21
1.9000
 31
0.0000
  0
ARC
  8
20
 10
92.0000
 20
2.1000
 30
0.0000
 40
0.2000
 50
180.0000
 51
270.0000
  0
LINE
  8
20
 10
91.8000
 20
2.1000
 30
0.0000
 11
91.8000
 21
3.9000
 31
0.0000
  0
ARC
  8
20
 10
92.0000
 20
3.9000
 30
0.0000
 40
0.2000
 50
90.0000
 51
180.0000
  0
POINT
  8
23
 10
35.0000
 20
97.0000
 30
0.0000
  0
LINE
  8
20
 10
32.0000
 20
98.1000
 30
0.0000
 11
38.0000
 21
98.1000
 31
0.0000
  0
ARC
  8
20
 10
38.0000
 20
97.9000
 30
0.0000
 40
0.2000
 50
0.0000
 51
90.0000
  0
LINE
  8
20
 10
38.2000
 20
97.9000
 30
0.0000
 11
38.2000
 21
96.1000
 31
0.0000
  0
ARC
  8
20
 10
38.0000
 20
96.1000
 30
0.0000
 40
0.2000
 50
270.0000
 51
0.0000
  0
LINE
  8
20
 10
38.0000
 20
95.9000
 30
0.0000
 11
32.0000
 21
95.9000
 31
0.0000
  0
ARC
  8
20
 10
32.0000
 20
96.1000
 30
0.0000
 40
0.2000
 50
180.0000
 51
270.0000
  0
LINE
  8
20
 10
31.8000
 20
96.1000
 30
0.0000
 11
31.8000
 21
97.9000
 31
0.0000
  0
ARC
  8
20
 10
32.0000
 20
97.9000
 30
0.0000
 40
0.2000
 50
90.0000
 51
180.0000
  0
POINT
  8
23
 10
55.0000
 20
97.0000
 30
0.0000
  0
LINE
  8
20
 10
52.0000
 20
98.1000
 30
0.0000
 11
58.0000
 21
98.1000
 31
0.0000
  0
ARC
  8
20
 10
58.0000
 20
97.9000
 30
0.0000
 40
0.2000
 50
0.0000
 51
90.0000
  0
LINE
  8
20
 10
58.2000
 20
97.9000
 30
0.0000
 11
58.2000
 21
96.1000
 31
0.0000
  0
ARC
  8
20
 10
58.0000
 20
96.1000
 30
0.0000
 40
0.2000
 50
270.0000
 51
0.0000
  0
LINE
  8
20
 10
58.0000
 20
95.9000
 30
0.0000
 11
52.0000
 21
95.9000
 31
0.0000
  0
ARC
  8
20
 10
52.0000
 20
96.1000
 30
0.0000
 40
0.2000
 50
180.0000
 51
270.0000
  0
LINE
  8
20
 10
51.8000
 20
96.1000
 30
0.0000
 11
51.8000
 21
97.9000
 31
0.0000
  0
ARC
  8
20
 10
52.0000
 20
97.9000
 30
0.0000
 40
0.2000
 50
90.0000
 51
180.0000
  0
POINT
  8
23
 10
75.0000
 20
97.0000
 30
0.0000
  0
LINE
  8
20
 10
72.0000
 20
98.1000
 30
0.0000
 11
78.0000
 21
98.1000
 31
0.0000
  0
ARC
  8
20
 10
78.0000
 20
97.9000
 30
0.0000
 40
0.2000
 50
0.0000
 51
90.0000
  0
LINE
  8
20
 10
78.2000
 20
97.9000
 30
0.0000
 11
78.2000
 21
96.1000
 31
0.0000
  0
ARC
  8
20
 10
78.0000
 20
96.1000
 30
0.0000
 40
0.2000
 50
270.0000
 51
0.0000
  0
LINE
  8
20
 10
78.0000
 20
95.9000
 30
0.0000
 11
72.0000
 21
95.9000
 31
0.0000
  0
ARC
  8
20
 10
72.0000
 20
96.1000
 30
0.0000
 40
0.2000
 50
180.0000
 51
270.0000
  0
LINE
  8
20
 10
71.8000
 20
96.1000
 30
0.0000
 11
71.8000
 21
97.9000
 31
0.0000
  0
ARC
  8
20
 10
72.0000
 20
97.9000
 30
0.0000
 40
0.2000
 50
90.0000
 51
180.0000
  0
POINT
  8
23
 10
95.0000
 20
97.0000
 30
0.0000
  0
LINE
  8
20
 10
92.0000
 20
98.1000
 30
0.0000
 11
98.0000
 21
98.1000
 31
0.0000
  0
ARC
  8
20
 10
98.0000
 20
97.9000
 30
0.0000
 40
0.2000
 50
0.0000
 51
90.0000
  0
LINE
  8
20
 10
98.2000
 20
97.9000
 30
0.0000
 11
98.2000
 21
96.1000
 31
0.0000
  0
ARC
  8
20
 10
98.0000
 20
96.1000
 30
0.0000
 40
0.2000
 50
270.0000
 51
0.0000
  0
LINE
  8
20
 10
98.0000
 20
95.9000
 30
0.0000
 11
92.0000
 21
95.9000
 31
0.0000
  0
ARC
  8
20
 10
92.0000
 20
96.1000
 30
0.0000
 40
0.2000
 50
180.0000
 51
270.0000
  0
LINE
  8
20
 10
91.8000
 20
96.1000
 30
0.0000
 11
91.8000
 21
97.9000
 31
0.0000
  0
ARC
  8
20
 10
92.0000
 20
97.9000
 30
0.0000
 40
0.2000
 50
90.0000
 51
180.0000
  0
POINT
  8
23
 10
115.0000
 20
97.0000
 30
0.0000
  0
LINE
  8
20
 10
112.0000
 20
98.1000
 30
0.0000
 11
118.0000
 21
98.1000
 31
0.0000
  0
ARC
  8
20
 10
118.0000
 20
97.9000
 30
0.0000
 40
0.2000
 50
0.0000
 51
90.0000
  0
LINE
  8
20
 10
118.2000
 20
97.9000
 30
0.0000
 11
118.2000
 21
96.1000
 31
0.0000
  0
ARC
  8
20
 10
118.0000
 20
96.1000
 30
0.0000
 40
0.2000
 50
270.0000
 51
0.0000
  0
LINE
  8
20
 10
118.0000
 20
95.9000
 30
0.0000
 11
112.0000
 21
95.9000
 31
0.0000
  0
ARC
  8
20
 10
112.0000
 20
96.1000
 30
0.0000
 40
0.2000
 50
180.0000
 51
270.0000
  0
LINE
  8
20
 10
111.8000
 20
96.1000
 30
0.0000
 11
111.8000
 21
97.9000
 31
0.0000
  0
ARC
  8
20
 10
112.0000
 20
97.9000
 30
0.0000
 40
0.2000
 50
90.0000
 51
180.0000
  0
POINT
  8
23
 10
149.5000
 20
-9.0000
 30
0.0000
  0
CIRCLE
  8
20
 10
140.0000
 20
50.0000
 30
0.0000
 40
2.1000
  0
POINT
  8
23
 10
19.5000
 20
-9.0000
 30
0.0000
  0
CIRCLE
  8
20
 10
10.0000
 20
50.0000
 30
0.0000
 40
2.1000
  0
POINT
  8
23
 10
125.0000
 20
50.0000
 30
0.0000
  0
CIRCLE
  8
20
 10
120.5000
 20
45.5000
 30
0.0000
 40
1.1000
  0
CIRCLE
  8
20
 10
129.5000
 20
45.5000
 30
0.0000
 40
1.1000
  0
CIRCLE
  8
20
 10
129.5000
 20
54.5000
 30
0.0000
 40
1.1000
  0
CIRCLE
  8
20
 10
120.5000
 20
54.5000
 30
0.0000
 40
1.1000
  0
CIRCLE
  8
20
 10
125.0000
 20
50.0000
 30
0.0000
 40
1.6000
  0
POINT
  8
23
 10
40.0000
 20
50.0000
 30
0.0000
  0
CIRCLE
  8
20
 10
35.5000
 20
45.5000
 30
0.0000
 40
1.1000
  0
CIRCLE
  8
20
 10
44.5000
 20
45.5000
 30
0.0000
 40
1.1000
  0
CIRCLE
  8
20
 10
44.5000
 20
54.5000
 30
0.0000
 40
1.1000
  0
CIRCLE
  8
20
 10
35.5000
 20
54.5000
 30
0.0000
 40
1.1000
  0
CIRCLE
  8
20
 10
40.0000
 20
50.0000
 30
0.0000
 40
1.6000
  0
POINT
  8
23
 10
125.0000
 20
25.0000
 30
0.0000
  0
CIRCLE
  8
20
 10
120.5000
 20
20.5000
 30
0.0000
 40
1.1000
  0
CIRCLE
  8
20
 10
129.5000
 20
20.5000
 30
0.0000
 40
1.1000
  0
CIRCLE
  8
20
 10
129.5000
 20
29.5000
 30
0.0000
 40
1.1000
  0
CIRCLE
  8
20
 10
120.5000
 20
29.5000
 30
0.0000
 40
1.1000
  0
CIRCLE
  8
20
 10
125.0000
 20
25.0000
 30
0.0000
 40
1.6000
  0
POINT
  8
23
 10
125.0000
 20
75.0000
 30
0.0000
  0
CIRCLE
  8
20
 10
120.5000
 20
70.5000
 30
0.0000
 40
1.1000
  0
CIRCLE
  8
20
 10
129.5000
 20
70.5000
 30
0.0000
 40
1.1000
  0
CIRCLE
  8
20
 10
129.5000
 20
79.5000
 30
0.0000
 40
1.1000
  0
CIRCLE
  8
20
 10
120.5000
 20
79.5000
 30
0.0000
 40
1.1000
  0
CIRCLE
  8
20
 10
125.0000
 20
75.0000
 30
0.0000
 40
1.6000
  0
POINT
  8
23
 10
2.0000
 20
64.0000
 30
0.0000
  0
CIRCLE
  8
20
 10
5.0000
 20
88.0000
 30
0.0000
 40
1.4000
  0
CIRCLE
  8
20
 10
5.0000
 20
67.0000
 30
0.0000
 40
1.4000
  0
CIRCLE
  8
20
 10
36.0000
 20
67.0000
 30
0.0000
 40
1.4000
  0
CIRCLE
  8
20
 10
36.0000
 20
88.0000
 30
0.0000
 40
1.4000
  0
POINT
  8
23
 10
42.0000
 20
70.0000
 30
0.0000
  0
CIRCLE
  8
20
 10
44.5400
 20
72.5400
 30
0.0000
 40
1.1000
  0
CIRCLE
  8
20
 10
44.5400
 20
90.3200
 30
0.0000
 40
1.1000
  0
CIRCLE
  8
20
 10
75.0200
 20
72.5400
 30
0.0000
 40
1.1000
  0
CIRCLE
  8
20
 10
75.0200
 20
90.3200
 30
0.0000
 40
1.1000
  0
POINT
  8
23
 10
55.0000
 20
3.0000
 30
0.0000
  0
LINE
  8
20
 10
52.0000
 20
4.1000
 30
0.0000
 11
58.0000
 21
4.1000
 31
0.0000
  0
ARC
  8
20
 10
58.0000
 20
3.9000
 30
0.0000
 40
0.2000
 50
0.0000
 51
90.0000
  0
LINE
  8
20
 10
58.2000
 20
3.9000
 30
0.0000
 11
58.2000
 21
2.1000
 31
0.0000
  0
ARC
  8
20
 10
58.0000
 20
2.1000
 30
0.0000
 40
0.2000
 50
270.0000
 51
0.0000
  0
LINE
  8
20
 10
58.0000
 20
1.9000
 30
0.0000
 11
52.0000
 21
1.9000
 31
0.0000
  0
ARC
  8
20
 10
52.0000
 20
2.1000
 30
0.0000
 40
0.2000
 50
180.0000
 51
270.0000
  0
LINE
  8
20
 10
51.8000
 20
2.1000
 30
0.0000
 11
51.8000
 21
3.9000
 31
0.0000
  0
ARC
  8
20
 10
52.0000
 20
3.9000
 30
0.0000
 40
0.2000
 50
90.0000
 51
180.0000
  0
ENDSEC
  0
EOF
